<?xml version="1.0" encoding="UTF-8"?>
<svg width="271px" height="254px" viewBox="0 0 271 254" version="1.1" xmlns="http://www.w3.org/2000/svg" xmlns:xlink="http://www.w3.org/1999/xlink">
    <!-- Generator: Sketch 42 (36781) - http://www.bohemiancoding.com/sketch -->
    <title>Group</title>
    <desc>Created with Sketch.</desc>
    <defs></defs>
    <g id="Page-1" stroke="none" stroke-width="1" fill="none" fill-rule="evenodd">
        <g id="Group">
            <path d="M104.145,229.57 L43.748,229.57 C42.891,229.57 42.194,228.874 42.194,228.018 C42.194,227.159 42.89,226.464 43.748,226.464 L104.144,226.464 C105.002,226.464 105.698,227.158 105.698,228.018 C105.698,228.874 105.003,229.57 104.145,229.57 Z" id="Shape" fill="#434A54" fill-rule="nonzero"></path>
            <path d="M65.534,252.004 L2.115,252.004 C1.258,252.004 0.562,251.308 0.562,250.452 C0.562,249.592 1.258,248.898 2.115,248.898 L65.534,248.898 C67.77,248.898 69.589,247.078 69.589,244.843 C69.589,242.605 67.771,240.786 65.534,240.786 L43.748,240.786 C39.8,240.786 36.586,237.572 36.586,233.626 C36.586,229.676 39.8,226.464 43.748,226.464 C44.605,226.464 45.302,227.158 45.302,228.018 C45.302,228.873 44.606,229.57 43.748,229.57 C41.512,229.57 39.693,231.388 39.693,233.627 C39.693,235.861 41.511,237.682 43.748,237.682 L65.534,237.682 C69.482,237.682 72.696,240.894 72.696,244.844 C72.696,248.79 69.482,252.004 65.534,252.004 Z" id="Shape" fill="#434A54" fill-rule="nonzero"></path>
            <path d="M105,26.432 C105,11.834 116.834,0 131.432,0 L243.932,0 C258.529,0 270.363,11.834 270.363,26.432 L270.363,250.812 C270.363,252.167 269.262,253.267 267.905,253.267 L107.457,253.267 C106.101,253.267 105,252.166 105,250.812 L105,26.432 L105,26.432 Z" id="Shape" fill="#DC4453"></path>
        </g>
    </g>
</svg>